# xmcd
#
# Track frame offsets:
#	150
#	15547
#	34191
#	50903
#	70761
#	86366
#	104170
#	120583
#	142425
#	158981
#
# Disc length: 2323 seconds
#
# Revision: 0
# Processed by: cddbd v1.5.2PL0 Copyright (c) Steve Scherf et al.
# Submitted via: EZCDAudioConverter 1.0.8.1
#
DISCID=9009110a
DTITLE=อ๊อฟ ปองศักดิ์ - Offering Love
DYEAR=2007
DGENRE=Pop
TTITLE0=ของที่เธอไม่รัก
TTITLE1=ดอกไม้ช่อเดียวที่ฉันมี
TTITLE2=ต้องเคลียร์
TTITLE3=แทงข้างหลัง...ทะลุถึงหัวใจ
TTITLE4=รักเธอไม่ใช่น้อย
TTITLE5=ดีอยู่แล้ว
TTITLE6=ทนอีกหน่อย
TTITLE7=1 วัน กับ 10 ปี
TTITLE8=หารักใส่ตัว
TTITLE9=เตือนความจำ
EXTD=
EXTT0=
EXTT1=
EXTT2=
EXTT3=
EXTT4=
EXTT5=
EXTT6=
EXTT7=
EXTT8=
EXTT9=
PLAYORDER=
